<?xml version="1.0" standalone="no"?>
<!DOCTYPE svg PUBLIC "-//W3C//DTD SVG 20010904//EN"
 "http://www.w3.org/TR/2001/REC-SVG-20010904/DTD/svg10.dtd">
<svg version="1.0" xmlns="http://www.w3.org/2000/svg"
 width="512.000000pt" height="512.000000pt" viewBox="0 0 512.000000 512.000000"
 preserveAspectRatio="xMidYMid meet">

<g transform="translate(0.000000,512.000000) scale(0.100000,-0.100000)"
fill="#000000" stroke="none">
<path d="M1360 3875 c-86 -19 -231 -92 -302 -152 -108 -90 -197 -225 -229
-344 l-12 -46 -83 -6 c-91 -5 -133 -23 -168 -70 -29 -39 -29 -125 0 -163 41
-56 69 -69 159 -72 l84 -4 21 -71 c90 -299 373 -507 689 -507 124 0 216 20
316 68 207 100 356 290 401 512 10 47 22 90 27 97 18 24 97 63 158 79 75 19
164 9 232 -26 67 -35 84 -55 91 -113 8 -68 47 -185 85 -250 134 -232 367 -367
630 -367 128 0 215 20 329 76 79 38 109 60 182 132 96 96 149 180 185 295 18
56 28 73 44 75 l21 3 0 -1201 0 -1202 55 47 55 47 0 1152 0 1152 40 18 c81 36
116 145 68 215 -42 62 -67 73 -171 79 l-95 5 -17 58 c-31 101 -92 197 -179
285 -88 87 -171 140 -289 182 -64 23 -88 26 -217 26 -113 1 -158 -3 -204 -17
-233 -72 -409 -237 -487 -457 -17 -46 -32 -74 -41 -73 -7 1 -40 11 -73 23
-117 43 -278 34 -385 -20 -21 -11 -41 -20 -43 -20 -3 0 -8 17 -11 38 -4 20
-28 80 -53 132 -39 81 -59 107 -137 185 -97 96 -172 143 -296 185 -85 29 -284
37 -380 15z m323 -209 c160 -56 287 -185 343 -347 25 -73 26 -233 1 -306 -78
-226 -278 -373 -505 -373 -284 1 -522 240 -522 525 0 237 169 452 402 511 68
17 217 12 281 -10z m1942 -2 c213 -75 365 -283 365 -499 0 -174 -108 -360
-261 -450 -82 -48 -142 -66 -234 -72 -300 -19 -555 221 -555 522 0 235 169
452 396 510 75 19 220 13 289 -11z"/>
<path d="M2045 1906 c-189 -31 -353 -111 -504 -247 -130 -117 -161 -131 -286
-136 -82 -4 -113 0 -170 17 -86 26 -107 29 -112 12 -13 -36 194 -165 317 -197
71 -19 183 -19 247 0 28 8 86 31 129 51 165 75 229 77 469 18 184 -46 253 -39
337 34 l35 31 24 -25 c35 -37 94 -65 153 -71 39 -4 84 3 191 31 233 62 293 60
459 -16 50 -22 114 -47 141 -54 66 -18 167 -18 240 1 128 33 315 146 315 192
0 13 -3 23 -6 23 -3 0 -44 -12 -90 -26 -74 -23 -97 -26 -182 -22 -123 6 -172
30 -286 136 -186 174 -399 256 -666 257 -152 0 -187 -8 -257 -62 l-45 -35 -32
31 c-17 16 -49 37 -71 47 -53 22 -244 28 -350 10z"/>
</g>
</svg>
